<mxfile host="app.diagrams.net" modified="2023-05-31T22:46:23.629Z" agent="Mozilla/5.0 (Windows NT 10.0; Win64; x64) AppleWebKit/537.36 (KHTML, like Gecko) Chrome/112.0.0.0 Safari/537.36" etag="DRITU4VdtR-9U_2g0KV9" version="21.2.9" type="device">
  <diagram name="Page-1" id="2q1mWAQTJzz6KRYayaMr">
    <mxGraphModel dx="799" dy="426" grid="1" gridSize="10" guides="1" tooltips="1" connect="1" arrows="1" fold="1" page="1" pageScale="1" pageWidth="600" pageHeight="400" math="0" shadow="0">
      <root>
        <mxCell id="0" />
        <mxCell id="1" parent="0" />
      </root>
    </mxGraphModel>
  </diagram>
</mxfile>
